<?xml version="1.0" encoding="utf-8"?>
<!-- Generator: Adobe Illustrator 24.0.2, SVG Export Plug-In . SVG Version: 6.00 Build 0)  -->
<svg version="1.1" id="Layer_1" xmlns="http://www.w3.org/2000/svg" xmlns:xlink="http://www.w3.org/1999/xlink" x="0px" y="0px"
	 viewBox="0 0 352.02 102.58" style="enable-background:new 0 0 352.02 102.58;" xml:space="preserve">
<style type="text/css">
	.st0{fill:url(#SVGID_1_);}
	.st1{fill:url(#SVGID_2_);}
	.st2{fill:url(#SVGID_3_);}
	.st3{fill:none;}
	.st4{fill:url(#SVGID_4_);}
	.st5{fill:url(#SVGID_5_);}
	.st6{fill:url(#SVGID_6_);}
	.st7{fill:url(#SVGID_7_);}
	.st8{fill:url(#SVGID_8_);}
	.st9{fill:#1B1464;}
</style>
<linearGradient id="SVGID_1_" gradientUnits="userSpaceOnUse" x1="6.5857" y1="82.0709" x2="36.2072" y2="82.0709">
	<stop  offset="0" style="stop-color:#21FF00"/>
	<stop  offset="1" style="stop-color:#0053CB"/>
</linearGradient>
<path class="st0" d="M34.82,74.6c-0.59-3.06-2.29-6.82-4.14-10.23c-0.04,0.02-0.06,0.04-0.06,0.04L7.89,92.71
	c-2.47,2.86-0.66,5.05-0.66,5.05c2.06,2.29,4.28,2,4.28,2h17.3c1.73,0,2.47-1.33,2.47-1.33l4.56-6.16
	C37.07,85.52,34.82,74.6,34.82,74.6z"/>
<linearGradient id="SVGID_2_" gradientUnits="userSpaceOnUse" x1="37.7907" y1="31.0301" x2="77.1021" y2="31.0301">
	<stop  offset="0" style="stop-color:#0053CB"/>
	<stop  offset="1" style="stop-color:#21FF00"/>
</linearGradient>
<path class="st1" d="M72.98,6.7c0,0-4.1-4.31-10.91-0.87c0,0-1.34,0.88-4.53,5.34L37.88,37.79l-0.08,0.11l10.67,17.79l0.03,0.05
	c0.33,0.6,0.62,1.21,0.87,1.82l23.67-31.24C73.04,26.33,82.22,16.7,72.98,6.7z"/>
<path d="M48.46,55.69c0.28,0.58,0.56,1.24,0.84,1.95l0.06-0.08c-0.25-0.61-0.54-1.23-0.87-1.82L48.46,55.69z"/>
<linearGradient id="SVGID_3_" gradientUnits="userSpaceOnUse" x1="2.0741" y1="48.3788" x2="50.8967" y2="48.3788">
	<stop  offset="0" style="stop-color:#25F4C3"/>
	<stop  offset="1" style="stop-color:#2580C3"/>
</linearGradient>
<path class="st2" d="M49.3,57.64c-0.28-0.72-0.56-1.37-0.84-1.95L37.79,37.91L23.56,14.19l-1.42-2.37c0,0-5.85-12.64-16.47-4.7
	c0,0-4.61,3.56-3.38,12.04c0,0,0.41,1.71,3.38,6.38l19.11,29.25c0,0,3.11,4.4,5.91,9.59c1.84,3.41,3.55,7.17,4.14,10.23
	c0,0,2.25,10.92,1.02,17.66l10.18-13.75c3.95-6.1,4.61-9.91,4.61-9.91C51.37,64.52,50.43,60.57,49.3,57.64z"/>
<path class="st3" d="M128.05,37.87c0.74-3.33,0.74-5.87,0.74-5.87c1.85-13.24-9.48-12.46-9.48-12.46h-17.53
	c-1.6,2.97-2.81,7.45-3.67,11.79c-0.89,4.43-1.42,8.71-1.69,11.09c26.82,2.93,30.89-2.38,31.51-4.06
	C127.98,38.19,128.02,38.03,128.05,37.87L128.05,37.87z"/>
<linearGradient id="SVGID_4_" gradientUnits="userSpaceOnUse" x1="107.9449" y1="49.6568" x2="133.3518" y2="93.3568">
	<stop  offset="0" style="stop-color:#21FF00"/>
	<stop  offset="1" style="stop-color:#0053CB"/>
</linearGradient>
<path class="st4" d="M136.7,79.08l-12.33-25.87h-2.41h-4.15h-15.98l15.1,35.8l1.3,2.65c0,0,5.09,13.95,16.93,6.79
	c0,0,5.15-3.22,4.56-12.28C139.72,86.17,139.43,84.32,136.7,79.08z"/>
<linearGradient id="SVGID_5_" gradientUnits="userSpaceOnUse" x1="147.0248" y1="67.9774" x2="120.3475" y2="13.8606">
	<stop  offset="0" style="stop-color:#21FF00"/>
	<stop  offset="1" style="stop-color:#0053CB"/>
</linearGradient>
<path class="st5" d="M145.96,26.58c-0.13-20.02-21.2-22.29-32.94-22c-5.55,4.27-11.17,14.84-11.17,14.84
	c-0.02,0.04-0.04,0.07-0.06,0.11h17.53c0,0,11.32-0.78,9.48,12.46c0,0,0,2.54-0.74,5.87v0c0,0,0,0.18-0.11,0.48
	c-0.83,3.5-2.12,8.13-5.18,11.48c-1.3,1.42-2.92,2.61-4.95,3.38h4.15h2.41h1.28C148.36,53.14,145.96,26.58,145.96,26.58z"/>
<linearGradient id="SVGID_6_" gradientUnits="userSpaceOnUse" x1="127.5732" y1="45.1859" x2="97.4659" y2="48.997">
	<stop  offset="0" style="stop-color:#25F4C3"/>
	<stop  offset="1" style="stop-color:#2580C3"/>
</linearGradient>
<path class="st6" d="M96.43,42.41c-0.03,0.25-0.05,0.48-0.07,0.69c-0.08,0.79-0.12,1.24-0.12,1.24l-1.07,8.87h6.67h15.98
	c2.04-0.77,3.65-1.96,4.95-3.38c3.05-3.34,4.34-7.98,5.18-11.48C127.32,40.03,123.25,45.34,96.43,42.41z"/>
<linearGradient id="SVGID_7_" gradientUnits="userSpaceOnUse" x1="101.1474" y1="3.4661" x2="71.5483" y2="95.9474">
	<stop  offset="0" style="stop-color:#25F4C3"/>
	<stop  offset="1" style="stop-color:#2580C3"/>
</linearGradient>
<path class="st7" d="M111.59,4.64l-6.25,0.56l-9.7,0.87C88.33,7.27,85.2,9.69,85.2,9.69c-3.39,2.56-5.34,6.55-6.45,9.9
	c-0.27,0.82-0.49,1.6-0.67,2.32l-3.73,23.88l-4.97,31.85l-0.5,3.18c0,0-4.03,15.38,9.83,18.82c0,0,6.09,1.41,10.92-6.44
	c0,0,0.85-1.74,1.7-8.15l3.83-31.83l1.07-8.87c0,0,0.04-0.45,0.12-1.24c0.02-0.21,0.05-0.44,0.07-0.69
	c0.26-2.38,0.8-6.65,1.69-11.09c0.87-4.34,2.07-8.82,3.67-11.79c0.02-0.04,0.04-0.07,0.06-0.11c0,0,5.62-10.57,11.17-14.84
	C112.53,4.6,112.05,4.62,111.59,4.64z"/>
<linearGradient id="SVGID_8_" gradientUnits="userSpaceOnUse" x1="139.3453" y1="49.459" x2="96.1294" y2="6.2431">
	<stop  offset="0" style="stop-color:#FFEE25"/>
	<stop  offset="0.0178" style="stop-color:#FFE920"/>
	<stop  offset="0.102" style="stop-color:#FED60E"/>
	<stop  offset="0.1886" style="stop-color:#FDCB04"/>
	<stop  offset="0.2809" style="stop-color:#FDC700"/>
	<stop  offset="0.6685" style="stop-color:#F08F34"/>
	<stop  offset="0.8876" style="stop-color:#E86031"/>
	<stop  offset="1" style="stop-color:#E2312D"/>
</linearGradient>
<path class="st8" d="M127.94,38.35c0.11-0.3,0.11-0.48,0.11-0.48C128.02,38.03,127.98,38.19,127.94,38.35z"/>
<g>
	<path class="st9" d="M161.97,100.32c-1.42,0-2.72-0.39-3.9-1.17c-1.17-0.78-2.11-1.84-2.8-3.18c-0.69-1.34-1.04-2.81-1.04-4.42
		v-3.12h6.93v2.86c0,0.3,0.11,0.57,0.32,0.81c0.21,0.24,0.45,0.36,0.72,0.36h25.51c0.31,0,0.57-0.12,0.78-0.36
		c0.21-0.24,0.32-0.51,0.32-0.81v-9.28c0-0.35-0.11-0.63-0.32-0.84c-0.21-0.22-0.47-0.32-0.78-0.32h-25.74
		c-1.42,0-2.72-0.39-3.9-1.17c-1.17-0.78-2.11-1.83-2.8-3.15c-0.69-1.32-1.04-2.78-1.04-4.38v-9.8c0-1.6,0.35-3.07,1.04-4.41
		c0.69-1.34,1.63-2.4,2.8-3.18c1.17-0.78,2.47-1.17,3.9-1.17H188c1.42,0,2.72,0.39,3.9,1.17c1.17,0.78,2.12,1.84,2.83,3.18
		c0.71,1.34,1.07,2.81,1.07,4.41v3.12h-6.98V62.6c0-0.3-0.11-0.57-0.32-0.81c-0.21-0.24-0.47-0.36-0.78-0.36H162.2
		c-0.27,0-0.51,0.12-0.72,0.36c-0.21,0.24-0.32,0.51-0.32,0.81v9.28c0,0.35,0.11,0.63,0.32,0.84c0.21,0.22,0.45,0.32,0.72,0.32H188
		c1.42,0,2.72,0.39,3.9,1.17c1.17,0.78,2.12,1.83,2.83,3.15c0.71,1.32,1.07,2.78,1.07,4.38v9.8c0,1.6-0.36,3.07-1.07,4.42
		c-0.71,1.34-1.66,2.4-2.83,3.18c-1.17,0.78-2.47,1.17-3.9,1.17H161.97z"/>
	<path class="st9" d="M205.11,99.11c-1.17-0.8-2.11-1.86-2.8-3.18s-1.04-2.76-1.04-4.32V50.91h6.87v11.75h13.39v7.73h-13.39v20.97
		c0,0.35,0.11,0.64,0.32,0.88c0.21,0.24,0.47,0.36,0.78,0.36h12.29v7.73h-12.52C207.58,100.32,206.29,99.92,205.11,99.11z"/>
	<path class="st9" d="M229.47,99.11c-1.17-0.8-2.11-1.86-2.8-3.18s-1.04-2.76-1.04-4.32V62.66h6.87v28.69
		c0,0.35,0.11,0.64,0.32,0.88c0.21,0.24,0.47,0.36,0.78,0.36h18.06c0.31,0,0.57-0.12,0.78-0.36c0.21-0.24,0.32-0.53,0.32-0.88V62.66
		h6.87v28.95c0,1.56-0.35,3-1.04,4.32s-1.63,2.38-2.8,3.18c-1.17,0.8-2.47,1.2-3.9,1.2h-18.53
		C231.94,100.32,230.64,99.92,229.47,99.11z"/>
	<path class="st9" d="M267.85,99.15c-1.17-0.78-2.11-1.83-2.8-3.15c-0.69-1.32-1.04-2.78-1.04-4.38V71.36c0-1.56,0.35-3,1.04-4.32
		c0.69-1.32,1.63-2.38,2.8-3.18s2.47-1.2,3.9-1.2h19.45V50.33h6.87v49.99h-26.32C270.32,100.32,269.02,99.93,267.85,99.15z
		 M272.03,92.59h18.06c0.31,0,0.57-0.12,0.78-0.36c0.21-0.24,0.32-0.53,0.32-0.88V71.62c0-0.35-0.11-0.64-0.32-0.88
		c-0.21-0.24-0.47-0.36-0.78-0.36h-18.06c-0.31,0-0.57,0.12-0.78,0.36c-0.21,0.24-0.32,0.53-0.32,0.88v19.74
		c0,0.35,0.11,0.64,0.32,0.88C271.46,92.47,271.72,92.59,272.03,92.59z"/>
	<path class="st9" d="M303.6,58.12v-7.79h6.87v7.79H303.6z M303.6,100.32V62.66h6.87v37.65H303.6z"/>
	<path class="st9" d="M319.5,99.11c-1.17-0.8-2.12-1.86-2.83-3.18s-1.07-2.76-1.07-4.32V71.36c0-1.56,0.36-3,1.07-4.32
		c0.71-1.32,1.65-2.38,2.83-3.18s2.45-1.2,3.84-1.2h18.53c1.42,0,2.72,0.39,3.9,1.17c1.17,0.78,2.11,1.83,2.8,3.15
		s1.04,2.78,1.04,4.38v20.25c0,1.56-0.35,3-1.04,4.32s-1.63,2.38-2.8,3.18c-1.17,0.8-2.47,1.2-3.9,1.2h-18.53
		C321.95,100.32,320.67,99.92,319.5,99.11z M323.57,92.59h18.06c0.31,0,0.57-0.12,0.78-0.36c0.21-0.24,0.32-0.53,0.32-0.88V71.62
		c0-0.35-0.11-0.64-0.32-0.88c-0.21-0.24-0.47-0.36-0.78-0.36h-18.06c-0.31,0-0.57,0.12-0.78,0.36c-0.21,0.24-0.32,0.53-0.32,0.88
		v19.74c0,0.35,0.11,0.64,0.32,0.88C323,92.47,323.26,92.59,323.57,92.59z"/>
</g>
</svg>
