<svg id="Layer_1" data-name="Layer 1" xmlns="http://www.w3.org/2000/svg" xmlns:xlink="http://www.w3.org/1999/xlink" viewBox="0 0 349.26 78.78"><defs><style>.cls-1{fill:url(#linear-gradient);}.cls-2{fill:url(#linear-gradient-2);}.cls-3{fill:url(#linear-gradient-3);}.cls-4{fill:none;}.cls-5{fill:url(#linear-gradient-4);}.cls-6{fill:url(#linear-gradient-5);}.cls-7{fill:url(#linear-gradient-6);}.cls-8{fill:url(#linear-gradient-7);}.cls-9{fill:url(#Orange_Yellow);}.cls-10{fill:#1b1464;}</style><linearGradient id="linear-gradient" x1="5.78" y1="80.68" x2="30.09" y2="80.68" gradientUnits="userSpaceOnUse"><stop offset="0" stop-color="#21ff00"/><stop offset="1" stop-color="#0053cb"/></linearGradient><linearGradient id="linear-gradient-2" x1="31.39" y1="38.79" x2="63.65" y2="38.79" gradientUnits="userSpaceOnUse"><stop offset="0" stop-color="#0053cb"/><stop offset="1" stop-color="#21ff00"/></linearGradient><linearGradient id="linear-gradient-3" x1="2.07" y1="53.03" x2="42.14" y2="53.03" gradientUnits="userSpaceOnUse"><stop offset="0" stop-color="#25f4c3"/><stop offset="1" stop-color="#2580c3"/></linearGradient><linearGradient id="linear-gradient-4" x1="88.96" y1="54.08" x2="109.82" y2="89.95" xlink:href="#linear-gradient"/><linearGradient id="linear-gradient-5" x1="121.04" y1="69.12" x2="99.14" y2="24.7" xlink:href="#linear-gradient"/><linearGradient id="linear-gradient-6" x1="105.07" y1="50.41" x2="80.36" y2="53.54" xlink:href="#linear-gradient-3"/><linearGradient id="linear-gradient-7" x1="83.39" y1="16.17" x2="59.09" y2="92.07" xlink:href="#linear-gradient-3"/><linearGradient id="Orange_Yellow" x1="114.74" y1="53.92" x2="79.27" y2="18.45" gradientUnits="userSpaceOnUse"><stop offset="0" stop-color="#ffee25"/><stop offset="0.02" stop-color="#ffe920"/><stop offset="0.1" stop-color="#fed60e"/><stop offset="0.19" stop-color="#fdcb04"/><stop offset="0.28" stop-color="#fdc700"/><stop offset="0.67" stop-color="#f08f34"/><stop offset="0.89" stop-color="#e86031"/><stop offset="1" stop-color="#e2312d"/></linearGradient></defs><title>logo</title><path class="cls-1" d="M29,74.56a31.94,31.94,0,0,0-3.4-8.4l-.05,0L6.84,89.41c-2,2.35-.54,4.15-.54,4.15A4.36,4.36,0,0,0,9.82,95.2H24a2.37,2.37,0,0,0,2-1.1l3.75-5C30.79,83.51,29,74.56,29,74.56Z" transform="translate(-2.07 -17.02)"/><path class="cls-2" d="M60.27,18.83s-3.37-3.54-9-.72c0,0-1.1.72-3.72,4.38L31.46,44.34l-.07.1L40.15,59l0,0a15.81,15.81,0,0,1,.72,1.5L60.32,34.93S67.85,27,60.27,18.83Z" transform="translate(-2.07 -17.02)"/><path d="M40.15,59c.22.48.46,1,.69,1.61l0-.07a15.81,15.81,0,0,0-.72-1.5Z" transform="translate(-2.07 -17.02)"/><path class="cls-3" d="M40.84,60.64c-.23-.59-.47-1.13-.69-1.61L31.39,44.44,19.7,25,18.54,23S13.74,12.65,5,19.17c0,0-3.79,2.92-2.77,9.88,0,0,.33,1.4,2.77,5.24l15.68,24a84.56,84.56,0,0,1,4.85,7.87,31.94,31.94,0,0,1,3.4,8.4s1.84,9,.84,14.49l8.35-11.29c3.25-5,3.79-8.13,3.79-8.13A17.08,17.08,0,0,0,40.84,60.64Z" transform="translate(-2.07 -17.02)"/><path class="cls-4" d="M105.47,44.41a25,25,0,0,0,.6-4.82c1.52-10.87-7.77-10.23-7.77-10.23H83.91a37.75,37.75,0,0,0-3,9.67c-.73,3.64-1.17,7.15-1.39,9.1,22,2.4,25.36-2,25.86-3.33,0-.13.07-.26.1-.39Z" transform="translate(-2.07 -17.02)"/><path class="cls-5" d="M112.57,78.23,102.45,57H84L96.34,86.37l1.06,2.18s4.18,11.45,13.9,5.58c0,0,4.22-2.65,3.74-10.08C115,84.05,114.8,82.53,112.57,78.23Z" transform="translate(-2.07 -17.02)"/><path class="cls-6" d="M120.16,35.14c-.11-16.43-17.4-18.29-27-18C88.57,20.6,84,29.27,84,29.27l0,.09H98.3s9.29-.64,7.77,10.23a25,25,0,0,1-.6,4.82h0a1.13,1.13,0,0,1-.1.39c-.68,2.88-1.74,6.68-4.24,9.42A10.46,10.46,0,0,1,97.06,57h6.44C122.13,56.94,120.16,35.14,120.16,35.14Z" transform="translate(-2.07 -17.02)"/><path class="cls-7" d="M79.51,48.13q0,.32-.06.57c-.07.64-.1,1-.1,1L78.48,57H97.06a10.46,10.46,0,0,0,4.07-2.78c2.5-2.74,3.56-6.54,4.24-9.42C104.87,46.18,101.52,50.53,79.51,48.13Z" transform="translate(-2.07 -17.02)"/><path class="cls-8" d="M92,17.13l-5.12.46-8,.71c-6,1-8.57,3-8.57,3A16.65,16.65,0,0,0,65,29.4c-.22.68-.4,1.32-.55,1.9L61.39,50.9,57.31,77l-.4,2.61S53.6,92.27,65,95.1c0,0,5,1.15,9-5.29,0,0,.7-1.43,1.39-6.69L78.48,57l.87-7.28s0-.38.1-1q0-.26.06-.57c.22-2,.66-5.46,1.39-9.1a37.75,37.75,0,0,1,3-9.67l0-.09s4.61-8.67,9.17-12.18Z" transform="translate(-2.07 -17.02)"/><path class="cls-9" d="M105.37,44.8a1.13,1.13,0,0,0,.1-.39C105.44,44.54,105.41,44.67,105.37,44.8Z" transform="translate(-2.07 -17.02)"/><path class="cls-10" d="M146.59,95.35A8.25,8.25,0,0,1,142,93.94a10,10,0,0,1-3.38-3.8,11.06,11.06,0,0,1-1.26-5.22V80.2H147v4.16H172.6V75.47h-26A8.25,8.25,0,0,1,142,74.06a10,10,0,0,1-3.38-3.77A11,11,0,0,1,137.31,65V55a11,11,0,0,1,1.26-5.25A10,10,0,0,1,142,46a8.25,8.25,0,0,1,4.64-1.41h26.57A8.11,8.11,0,0,1,177.77,46a10.37,10.37,0,0,1,3.38,3.77A10.75,10.75,0,0,1,182.44,55v4.72H172.6V55.59H147v8.89h26.13a8.11,8.11,0,0,1,4.61,1.41,10.37,10.37,0,0,1,3.38,3.77,10.75,10.75,0,0,1,1.29,5.25v10a10.85,10.85,0,0,1-1.29,5.22,10.38,10.38,0,0,1-3.38,3.8,8.11,8.11,0,0,1-4.61,1.41Z" transform="translate(-2.07 -17.02)"/><path class="cls-10" d="M193.09,93.94a10.33,10.33,0,0,1-3.32-3.73,10.5,10.5,0,0,1-1.25-5.08V42.34h9.58V54.47h13.48V65.25H198.1V84.57h13.48V95.35H197.67A7.94,7.94,0,0,1,193.09,93.94Z" transform="translate(-2.07 -17.02)"/><path class="cls-10" d="M220.67,93.94a10.08,10.08,0,0,1-3.29-3.73,10.71,10.71,0,0,1-1.23-5.08V54.47h9.59v30.1h17.67V54.47H253V85.13a10.71,10.71,0,0,1-1.22,5.08,10.08,10.08,0,0,1-3.29,3.73,7.93,7.93,0,0,1-4.57,1.41H225.24A7.91,7.91,0,0,1,220.67,93.94Z" transform="translate(-2.07 -17.02)"/><path class="cls-10" d="M262.34,93.94a10.17,10.17,0,0,1-3.29-3.73,10.82,10.82,0,0,1-1.22-5.08V64.69a10.82,10.82,0,0,1,1.22-5.08,10.17,10.17,0,0,1,3.29-3.73,7.94,7.94,0,0,1,4.58-1.41h18.23V41.07h9.59V95.35H266.92A7.94,7.94,0,0,1,262.34,93.94Zm22.81-9.37V65.25H267.48V84.57Z" transform="translate(-2.07 -17.02)"/><path class="cls-10" d="M300.82,51.93V41.07h9.59V51.93Zm0,43.42V54.47h9.59V95.35Z" transform="translate(-2.07 -17.02)"/><path class="cls-10" d="M319.06,93.94a10.45,10.45,0,0,1-3.33-3.73,10.61,10.61,0,0,1-1.25-5.08V64.69a10.61,10.61,0,0,1,1.25-5.08,10.45,10.45,0,0,1,3.33-3.73,7.84,7.84,0,0,1,4.51-1.41h18.68a7.93,7.93,0,0,1,4.57,1.41,10.08,10.08,0,0,1,3.29,3.73,10.71,10.71,0,0,1,1.22,5.08V85.13a10.71,10.71,0,0,1-1.22,5.08,10.08,10.08,0,0,1-3.29,3.73,7.93,7.93,0,0,1-4.57,1.41H323.57A7.84,7.84,0,0,1,319.06,93.94Zm22.68-9.37V65.25H324.07V84.57Z" transform="translate(-2.07 -17.02)"/></svg>